<?xml version="1.0" encoding="UTF-8"?>
<svg xmlns="http://www.w3.org/2000/svg" width="512" height="512" viewBox="0 0 512 512" role="img" aria-label="Tokiwa Hub">
  <defs>
    <linearGradient id="bgm" x1="0" y1="0" x2="0" y2="1">
      <stop offset="0" stop-color="#a3e635"/>
      <stop offset="1" stop-color="#65a30d"/>
    </linearGradient>
  </defs>
  <!-- 全面塗り (OS側でマスクされるため角丸なし) -->
  <rect width="512" height="512" fill="url(#bgm)"/>
  <!-- ハブ (セーフゾーン内) -->
  <g stroke="#ffffff" stroke-width="11" stroke-linecap="round" opacity="0.92">
    <line x1="256" y1="256" x2="256" y2="106"/>
    <line x1="256" y1="256" x2="386" y2="181"/>
    <line x1="256" y1="256" x2="386" y2="331"/>
    <line x1="256" y1="256" x2="256" y2="406"/>
    <line x1="256" y1="256" x2="126" y2="331"/>
    <line x1="256" y1="256" x2="126" y2="181"/>
  </g>
  <g fill="#ffffff">
    <circle cx="256" cy="106" r="29"/><circle cx="386" cy="181" r="29"/><circle cx="386" cy="331" r="29"/>
    <circle cx="256" cy="406" r="29"/><circle cx="126" cy="331" r="29"/><circle cx="126" cy="181" r="29"/>
  </g>
  <polygon points="256,190 311.4,223 311.4,289 256,322 200.6,289 200.6,223" fill="#ffffff"/>
  <polygon points="256,212 292.4,233 292.4,275 256,296 219.6,275 219.6,233" fill="#65a30d"/>
</svg>
