<?xml version="1.0" encoding="UTF-8"?>
<svg xmlns="http://www.w3.org/2000/svg" width="760" height="180" viewBox="0 0 760 180" role="img" aria-label="TOKIWA HUB トキワ印刷グループ 統合業務管理システム">
  <defs>
    <linearGradient id="bg2" x1="0" y1="0" x2="0" y2="1">
      <stop offset="0" stop-color="#a3e635"/>
      <stop offset="1" stop-color="#65a30d"/>
    </linearGradient>
  </defs>
  <!-- アイコン (0.26 縮尺) -->
  <g transform="translate(18,24) scale(0.258)">
    <rect width="512" height="512" rx="116" ry="116" fill="url(#bg2)"/>
    <g stroke="#ffffff" stroke-width="11" stroke-linecap="round" opacity="0.92">
      <line x1="256" y1="256" x2="256" y2="106"/>
      <line x1="256" y1="256" x2="386" y2="181"/>
      <line x1="256" y1="256" x2="386" y2="331"/>
      <line x1="256" y1="256" x2="256" y2="406"/>
      <line x1="256" y1="256" x2="126" y2="331"/>
      <line x1="256" y1="256" x2="126" y2="181"/>
    </g>
    <g fill="#ffffff">
      <circle cx="256" cy="106" r="29"/><circle cx="386" cy="181" r="29"/><circle cx="386" cy="331" r="29"/>
      <circle cx="256" cy="406" r="29"/><circle cx="126" cy="331" r="29"/><circle cx="126" cy="181" r="29"/>
    </g>
    <polygon points="256,190 311.4,223 311.4,289 256,322 200.6,289 200.6,223" fill="#ffffff"/>
    <polygon points="256,212 292.4,233 292.4,275 256,296 219.6,275 219.6,233" fill="#65a30d"/>
  </g>
  <!-- ワードマーク -->
  <text x="182" y="96" font-family="'Segoe UI','Helvetica Neue',Arial,sans-serif" font-size="60" font-weight="800" letter-spacing="1">
    <tspan fill="#1e293b">TOKIWA</tspan><tspan fill="#65a30d"> HUB</tspan>
  </text>
  <!-- タグライン -->
  <text x="184" y="132" font-family="'Hiragino Kaku Gothic ProN','Yu Gothic','Meiryo',sans-serif" font-size="19" font-weight="600" letter-spacing="1.5" fill="#64748b">トキワ印刷グループ ・ 統合業務管理システム</text>
</svg>
